<svg width="11" height="20" viewBox="0 0 11 20" fill="none" xmlns="http://www.w3.org/2000/svg">
<path d="M10.2515 0.289767L7.73191 0.285721C4.9014 0.285721 3.07223 2.16243 3.07223 5.06712V7.27166H0.539043C0.320141 7.27166 0.142883 7.44913 0.142883 7.66803V10.8622C0.142883 11.0812 0.320346 11.2583 0.539043 11.2583H3.07223V19.3182C3.07223 19.537 3.2495 19.7143 3.46839 19.7143H6.77351C6.99237 19.7143 7.16963 19.5368 7.16963 19.3182V11.2583H10.1316C10.3504 11.2583 10.5277 11.0812 10.5277 10.8622L10.5289 7.66803C10.5289 7.56292 10.4871 7.46227 10.4129 7.38788C10.3388 7.3135 10.2376 7.27166 10.1326 7.27166H7.16963V5.40284C7.16963 4.50461 7.38368 4.04862 8.55374 4.04862L10.251 4.04802C10.4697 4.04802 10.647 3.87056 10.647 3.65186V0.685926C10.647 0.467424 10.4699 0.290167 10.2515 0.289767Z" fill="#444444"/>
</svg>
