<svg width="23" height="19" viewBox="0 0 23 19" fill="none" xmlns="http://www.w3.org/2000/svg">
<path d="M21.9662 1.58715C21.1411 0.459831 19.6178 0 16.7087 0H6.14829C3.1725 0 1.62337 0.489499 0.801406 1.68967C6.81196e-08 2.85986 0 4.58405 0 6.97035V11.5186C0 16.1417 0.950857 18.4889 6.14829 18.4889H16.7087C19.2315 18.4889 20.6295 18.0832 21.5339 17.0883C22.4615 16.0681 22.8571 14.4025 22.8571 11.5186V6.97035C22.8571 4.45379 22.7952 2.71944 21.9662 1.58715ZM14.6744 9.87245L9.87893 12.753C9.77173 12.8175 9.65448 12.8494 9.53739 12.8494C9.40482 12.8494 9.27255 12.8084 9.15539 12.7269C8.93479 12.5732 8.80007 12.2984 8.80007 12.0019V6.25914C8.80007 5.96321 8.93441 5.68863 9.15458 5.53489C9.37482 5.38118 9.64873 5.37066 9.87723 5.5071L14.6727 8.36918C14.9167 8.51475 15.0698 8.80428 15.0702 9.12007C15.0705 9.43623 14.9181 9.72614 14.6744 9.87245Z" fill="#444444"/>
</svg>
